<svg width="243" height="69" viewBox="0 0 243 69" fill="none" xmlns="http://www.w3.org/2000/svg">
<path d="M45.128 20.672C45.128 26.24 43.208 30.88 39.368 34.592C35.592 38.24 29.8 40.064 21.992 40.064H9.128V68H0.392001V1.088H21.992C29.544 1.088 35.272 2.912 39.176 6.56C43.144 10.208 45.128 14.912 45.128 20.672ZM21.992 32.864C26.856 32.864 30.44 31.808 32.744 29.696C35.048 27.584 36.2 24.576 36.2 20.672C36.2 12.416 31.464 8.288 21.992 8.288H9.128V32.864H21.992ZM64.5298 1.088V43.424C64.5298 49.376 65.9698 53.792 68.8498 56.672C71.7938 59.552 75.8578 60.992 81.0418 60.992C86.1618 60.992 90.1618 59.552 93.0418 56.672C95.9858 53.792 97.4578 49.376 97.4578 43.424V1.088H106.194V43.328C106.194 48.896 105.074 53.6 102.834 57.44C100.594 61.216 97.5538 64.032 93.7138 65.888C89.9378 67.744 85.6818 68.672 80.9458 68.672C76.2098 68.672 71.9218 67.744 68.0818 65.888C64.3058 64.032 61.2978 61.216 59.0578 57.44C56.8818 53.6 55.7938 48.896 55.7938 43.328V1.088H64.5298ZM154.271 33.536C156.703 33.92 158.911 34.912 160.895 36.512C162.943 38.112 164.543 40.096 165.695 42.464C166.911 44.832 167.519 47.36 167.519 50.048C167.519 53.44 166.655 56.512 164.927 59.264C163.199 61.952 160.671 64.096 157.343 65.696C154.079 67.232 150.207 68 145.727 68H120.767V1.088H144.767C149.311 1.088 153.183 1.856 156.383 3.392C159.583 4.864 161.983 6.88 163.583 9.44C165.183 12 165.983 14.88 165.983 18.08C165.983 22.048 164.895 25.344 162.719 27.968C160.607 30.528 157.791 32.384 154.271 33.536ZM129.503 29.984H144.191C148.287 29.984 151.455 29.024 153.695 27.104C155.935 25.184 157.055 22.528 157.055 19.136C157.055 15.744 155.935 13.088 153.695 11.168C151.455 9.248 148.223 8.288 143.999 8.288H129.503V29.984ZM144.959 60.8C149.311 60.8 152.703 59.776 155.135 57.728C157.567 55.68 158.783 52.832 158.783 49.184C158.783 45.472 157.503 42.56 154.943 40.448C152.383 38.272 148.959 37.184 144.671 37.184H129.503V60.8H144.959ZM230.33 20.48C228.474 16.576 225.786 13.568 222.266 11.456C218.746 9.28 214.65 8.192 209.978 8.192C205.306 8.192 201.082 9.28 197.306 11.456C193.594 13.568 190.65 16.64 188.474 20.672C186.362 24.64 185.306 29.248 185.306 34.496C185.306 39.744 186.362 44.352 188.474 48.32C190.65 52.288 193.594 55.36 197.306 57.536C201.082 59.648 205.306 60.704 209.978 60.704C216.506 60.704 221.882 58.752 226.106 54.848C230.33 50.944 232.794 45.664 233.498 39.008H206.81V31.904H242.81V38.624C242.298 44.128 240.57 49.184 237.626 53.792C234.682 58.336 230.81 61.952 226.01 64.64C221.21 67.264 215.866 68.576 209.978 68.576C203.77 68.576 198.106 67.136 192.986 64.256C187.866 61.312 183.802 57.248 180.794 52.064C177.85 46.88 176.378 41.024 176.378 34.496C176.378 27.968 177.85 22.112 180.794 16.928C183.802 11.68 187.866 7.616 192.986 4.736C198.106 1.792 203.77 0.319996 209.978 0.319996C217.082 0.319996 223.354 2.08 228.794 5.6C234.298 9.12 238.298 14.08 240.794 20.48H230.33Z" fill="white"/>
</svg>
