<svg width="607" height="97" viewBox="0 0 607 97" fill="none" xmlns="http://www.w3.org/2000/svg">
<path d="M22.016 72.864C17.984 72.864 14.368 72.192 11.168 70.848C7.968 69.44 5.44 67.52 3.584 65.088C1.728 62.592 0.704 59.744 0.512 56.544H9.536C9.792 59.168 11.008 61.312 13.184 62.976C15.424 64.64 18.336 65.472 21.92 65.472C25.248 65.472 27.872 64.736 29.792 63.264C31.712 61.792 32.672 59.936 32.672 57.696C32.672 55.392 31.648 53.696 29.6 52.608C27.552 51.456 24.384 50.336 20.096 49.248C16.192 48.224 12.992 47.2 10.496 46.176C8.064 45.088 5.952 43.52 4.16 41.472C2.432 39.36 1.568 36.608 1.568 33.216C1.568 30.528 2.368 28.064 3.968 25.824C5.568 23.584 7.84 21.824 10.784 20.544C13.728 19.2 17.088 18.528 20.864 18.528C26.688 18.528 31.392 20 34.976 22.944C38.56 25.888 40.48 29.92 40.736 35.04H32C31.808 32.288 30.688 30.08 28.64 28.416C26.656 26.752 23.968 25.92 20.576 25.92C17.44 25.92 14.944 26.592 13.088 27.936C11.232 29.28 10.304 31.04 10.304 33.216C10.304 34.944 10.848 36.384 11.936 37.536C13.088 38.624 14.496 39.52 16.16 40.224C17.888 40.864 20.256 41.6 23.264 42.432C27.04 43.456 30.112 44.48 32.48 45.504C34.848 46.464 36.864 47.936 38.528 49.92C40.256 51.904 41.152 54.496 41.216 57.696C41.216 60.576 40.416 63.168 38.816 65.472C37.216 67.776 34.944 69.6 32 70.944C29.12 72.224 25.792 72.864 22.016 72.864ZM50.2843 45.504C50.2843 40.128 51.3723 35.424 53.5483 31.392C55.7243 27.296 58.7003 24.128 62.4763 21.888C66.3163 19.648 70.6043 18.528 75.3403 18.528C79.8843 18.528 83.8523 19.552 87.2443 21.6C90.7003 23.584 93.2283 26.048 94.8283 28.992V19.392H103.66V96.96H94.8283V62.304C93.1643 65.248 90.6043 67.744 87.1483 69.792C83.6923 71.84 79.6603 72.864 75.0523 72.864C70.4443 72.864 66.2523 71.712 62.4763 69.408C58.7003 67.104 55.7243 63.872 53.5483 59.712C51.3723 55.552 50.2843 50.816 50.2843 45.504ZM94.8283 45.6C94.8283 41.632 94.0283 38.176 92.4283 35.232C90.8283 32.288 88.6523 30.048 85.9003 28.512C83.2123 26.912 80.2363 26.112 76.9723 26.112C73.7083 26.112 70.7323 26.88 68.0443 28.416C65.3563 29.952 63.2123 32.192 61.6123 35.136C60.0123 38.08 59.2123 41.536 59.2123 45.504C59.2123 49.536 60.0123 53.056 61.6123 56.064C63.2123 59.008 65.3563 61.28 68.0443 62.88C70.7323 64.416 73.7083 65.184 76.9723 65.184C80.2363 65.184 83.2123 64.416 85.9003 62.88C88.6523 61.28 90.8283 59.008 92.4283 56.064C94.0283 53.056 94.8283 49.568 94.8283 45.6ZM165.079 19.392V72H156.343V64.224C154.679 66.912 152.343 69.024 149.335 70.56C146.391 72.032 143.127 72.768 139.543 72.768C135.447 72.768 131.767 71.936 128.503 70.272C125.239 68.544 122.647 65.984 120.727 62.592C118.871 59.2 117.943 55.072 117.943 50.208V19.392H126.583V49.056C126.583 54.24 127.895 58.24 130.519 61.056C133.143 63.808 136.727 65.184 141.271 65.184C145.943 65.184 149.623 63.744 152.311 60.864C154.999 57.984 156.343 53.792 156.343 48.288V19.392H165.079ZM176.566 45.504C176.566 40.128 177.654 35.424 179.83 31.392C182.006 27.296 184.982 24.128 188.758 21.888C192.598 19.648 196.854 18.528 201.526 18.528C206.134 18.528 210.134 19.52 213.526 21.504C216.918 23.488 219.446 25.984 221.11 28.992V19.392H229.942V72H221.11V62.208C219.382 65.28 216.79 67.84 213.334 69.888C209.942 71.872 205.974 72.864 201.43 72.864C196.758 72.864 192.534 71.712 188.758 69.408C184.982 67.104 182.006 63.872 179.83 59.712C177.654 55.552 176.566 50.816 176.566 45.504ZM221.11 45.6C221.11 41.632 220.31 38.176 218.71 35.232C217.11 32.288 214.934 30.048 212.182 28.512C209.494 26.912 206.518 26.112 203.254 26.112C199.99 26.112 197.014 26.88 194.326 28.416C191.638 29.952 189.494 32.192 187.894 35.136C186.294 38.08 185.494 41.536 185.494 45.504C185.494 49.536 186.294 53.056 187.894 56.064C189.494 59.008 191.638 61.28 194.326 62.88C197.014 64.416 199.99 65.184 203.254 65.184C206.518 65.184 209.494 64.416 212.182 62.88C214.934 61.28 217.11 59.008 218.71 56.064C220.31 53.056 221.11 49.568 221.11 45.6ZM241.441 45.504C241.441 40.128 242.529 35.424 244.705 31.392C246.881 27.296 249.857 24.128 253.633 21.888C257.473 19.648 261.761 18.528 266.497 18.528C270.593 18.528 274.401 19.488 277.921 21.408C281.441 23.264 284.129 25.728 285.985 28.8V0.959999H294.817V72H285.985V62.112C284.257 65.248 281.697 67.84 278.305 69.888C274.913 71.872 270.945 72.864 266.401 72.864C261.729 72.864 257.473 71.712 253.633 69.408C249.857 67.104 246.881 63.872 244.705 59.712C242.529 55.552 241.441 50.816 241.441 45.504ZM285.985 45.6C285.985 41.632 285.185 38.176 283.585 35.232C281.985 32.288 279.809 30.048 277.057 28.512C274.369 26.912 271.393 26.112 268.129 26.112C264.865 26.112 261.889 26.88 259.201 28.416C256.513 29.952 254.369 32.192 252.769 35.136C251.169 38.08 250.369 41.536 250.369 45.504C250.369 49.536 251.169 53.056 252.769 56.064C254.369 59.008 256.513 61.28 259.201 62.88C261.889 64.416 264.865 65.184 268.129 65.184C271.393 65.184 274.369 64.416 277.057 62.88C279.809 61.28 281.985 59.008 283.585 56.064C285.185 53.056 285.985 49.568 285.985 45.6ZM343.909 29.184C345.701 26.048 348.325 23.488 351.781 21.504C355.237 19.52 359.173 18.528 363.589 18.528C368.325 18.528 372.581 19.648 376.357 21.888C380.133 24.128 383.109 27.296 385.285 31.392C387.461 35.424 388.549 40.128 388.549 45.504C388.549 50.816 387.461 55.552 385.285 59.712C383.109 63.872 380.101 67.104 376.261 69.408C372.485 71.712 368.261 72.864 363.589 72.864C359.045 72.864 355.045 71.872 351.589 69.888C348.197 67.904 345.637 65.376 343.909 62.304V72H335.173V0.959999H343.909V29.184ZM379.621 45.504C379.621 41.536 378.821 38.08 377.221 35.136C375.621 32.192 373.445 29.952 370.693 28.416C368.005 26.88 365.029 26.112 361.765 26.112C358.565 26.112 355.589 26.912 352.837 28.512C350.149 30.048 347.973 32.32 346.309 35.328C344.709 38.272 343.909 41.696 343.909 45.6C343.909 49.568 344.709 53.056 346.309 56.064C347.973 59.008 350.149 61.28 352.837 62.88C355.589 64.416 358.565 65.184 361.765 65.184C365.029 65.184 368.005 64.416 370.693 62.88C373.445 61.28 375.621 59.008 377.221 56.064C378.821 53.056 379.621 49.536 379.621 45.504ZM396.784 45.504C396.784 40.128 397.872 35.424 400.048 31.392C402.224 27.296 405.2 24.128 408.976 21.888C412.816 19.648 417.072 18.528 421.744 18.528C426.352 18.528 430.352 19.52 433.744 21.504C437.136 23.488 439.664 25.984 441.328 28.992V19.392H450.16V72H441.328V62.208C439.6 65.28 437.008 67.84 433.552 69.888C430.16 71.872 426.192 72.864 421.648 72.864C416.976 72.864 412.752 71.712 408.976 69.408C405.2 67.104 402.224 63.872 400.048 59.712C397.872 55.552 396.784 50.816 396.784 45.504ZM441.328 45.6C441.328 41.632 440.528 38.176 438.928 35.232C437.328 32.288 435.152 30.048 432.4 28.512C429.712 26.912 426.736 26.112 423.472 26.112C420.208 26.112 417.232 26.88 414.544 28.416C411.856 29.952 409.712 32.192 408.112 35.136C406.512 38.08 405.712 41.536 405.712 45.504C405.712 49.536 406.512 53.056 408.112 56.064C409.712 59.008 411.856 61.28 414.544 62.88C417.232 64.416 420.208 65.184 423.472 65.184C426.736 65.184 429.712 64.416 432.4 62.88C435.152 61.28 437.328 59.008 438.928 56.064C440.528 53.056 441.328 49.568 441.328 45.6ZM475.579 26.592V57.6C475.579 60.16 476.123 61.984 477.211 63.072C478.299 64.096 480.187 64.608 482.875 64.608H489.307V72H481.435C476.571 72 472.923 70.88 470.491 68.64C468.059 66.4 466.843 62.72 466.843 57.6V26.592H460.027V19.392H466.843V6.144H475.579V19.392H489.307V26.592H475.579ZM510.548 26.592V57.6C510.548 60.16 511.092 61.984 512.18 63.072C513.268 64.096 515.156 64.608 517.844 64.608H524.276V72H516.404C511.54 72 507.892 70.88 505.46 68.64C503.028 66.4 501.812 62.72 501.812 57.6V26.592H494.996V19.392H501.812V6.144H510.548V19.392H524.276V26.592H510.548ZM543.597 0.959999V72H534.861V0.959999H543.597ZM606.486 43.68C606.486 45.344 606.39 47.104 606.198 48.96H564.15C564.47 54.144 566.23 58.208 569.43 61.152C572.694 64.032 576.63 65.472 581.238 65.472C585.014 65.472 588.15 64.608 590.646 62.88C593.206 61.088 594.998 58.72 596.022 55.776H605.43C604.022 60.832 601.206 64.96 596.982 68.16C592.758 71.296 587.51 72.864 581.238 72.864C576.246 72.864 571.766 71.744 567.798 69.504C563.894 67.264 560.822 64.096 558.582 60C556.342 55.84 555.222 51.04 555.222 45.6C555.222 40.16 556.31 35.392 558.486 31.296C560.662 27.2 563.702 24.064 567.606 21.888C571.574 19.648 576.118 18.528 581.238 18.528C586.23 18.528 590.646 19.616 594.486 21.792C598.326 23.968 601.27 26.976 603.318 30.816C605.43 34.592 606.486 38.88 606.486 43.68ZM597.462 41.856C597.462 38.528 596.726 35.68 595.254 33.312C593.782 30.88 591.766 29.056 589.206 27.84C586.71 26.56 583.926 25.92 580.854 25.92C576.438 25.92 572.662 27.328 569.526 30.144C566.454 32.96 564.694 36.864 564.246 41.856H597.462Z" fill="white"/>
</svg>
