<svg width="564" height="97" viewBox="0 0 564 97" fill="none" xmlns="http://www.w3.org/2000/svg">
<path d="M16.048 26.592V57.6C16.048 60.16 16.592 61.984 17.68 63.072C18.768 64.096 20.656 64.608 23.344 64.608H29.776V72H21.904C17.04 72 13.392 70.88 10.96 68.64C8.528 66.4 7.312 62.72 7.312 57.6V26.592H0.496V19.392H7.312V6.144H16.048V19.392H29.776V26.592H16.048ZM37.0968 45.504C37.0968 40.128 38.1848 35.424 40.3608 31.392C42.5368 27.296 45.5128 24.128 49.2888 21.888C53.1288 19.648 57.3848 18.528 62.0568 18.528C66.6648 18.528 70.6648 19.52 74.0568 21.504C77.4488 23.488 79.9768 25.984 81.6408 28.992V19.392H90.4728V72H81.6408V62.208C79.9128 65.28 77.3208 67.84 73.8648 69.888C70.4728 71.872 66.5048 72.864 61.9608 72.864C57.2888 72.864 53.0648 71.712 49.2888 69.408C45.5128 67.104 42.5368 63.872 40.3608 59.712C38.1848 55.552 37.0968 50.816 37.0968 45.504ZM81.6408 45.6C81.6408 41.632 80.8408 38.176 79.2408 35.232C77.6408 32.288 75.4648 30.048 72.7128 28.512C70.0248 26.912 67.0488 26.112 63.7848 26.112C60.5208 26.112 57.5448 26.88 54.8568 28.416C52.1688 29.952 50.0248 32.192 48.4248 35.136C46.8248 38.08 46.0248 41.536 46.0248 45.504C46.0248 49.536 46.8248 53.056 48.4248 56.064C50.0248 59.008 52.1688 61.28 54.8568 62.88C57.5448 64.416 60.5208 65.184 63.7848 65.184C67.0488 65.184 70.0248 64.416 72.7128 62.88C75.4648 61.28 77.6408 59.008 79.2408 56.064C80.8408 53.056 81.6408 49.568 81.6408 45.6ZM150.548 19.392L118.868 96.768H109.844L120.212 71.424L98.9958 19.392H108.692L125.204 62.016L141.524 19.392H150.548ZM168.066 0.959999V72H159.33V0.959999H168.066ZM230.955 43.68C230.955 45.344 230.859 47.104 230.667 48.96H188.619C188.939 54.144 190.699 58.208 193.899 61.152C197.163 64.032 201.099 65.472 205.707 65.472C209.483 65.472 212.619 64.608 215.115 62.88C217.675 61.088 219.467 58.72 220.491 55.776H229.899C228.491 60.832 225.675 64.96 221.451 68.16C217.227 71.296 211.979 72.864 205.707 72.864C200.715 72.864 196.235 71.744 192.267 69.504C188.363 67.264 185.291 64.096 183.051 60C180.811 55.84 179.691 51.04 179.691 45.6C179.691 40.16 180.779 35.392 182.955 31.296C185.131 27.2 188.171 24.064 192.075 21.888C196.043 19.648 200.587 18.528 205.707 18.528C210.699 18.528 215.115 19.616 218.955 21.792C222.795 23.968 225.739 26.976 227.787 30.816C229.899 34.592 230.955 38.88 230.955 43.68ZM221.931 41.856C221.931 38.528 221.195 35.68 219.723 33.312C218.251 30.88 216.235 29.056 213.675 27.84C211.179 26.56 208.395 25.92 205.323 25.92C200.907 25.92 197.131 27.328 193.995 30.144C190.923 32.96 189.163 36.864 188.715 41.856H221.931ZM251.222 27.936C252.758 24.928 254.934 22.592 257.75 20.928C260.63 19.264 264.118 18.432 268.214 18.432V27.456H265.91C256.118 27.456 251.222 32.768 251.222 43.392V72H242.486V19.392H251.222V27.936ZM312.628 29.184C314.42 26.048 317.044 23.488 320.5 21.504C323.956 19.52 327.892 18.528 332.308 18.528C337.044 18.528 341.3 19.648 345.076 21.888C348.852 24.128 351.828 27.296 354.004 31.392C356.18 35.424 357.268 40.128 357.268 45.504C357.268 50.816 356.18 55.552 354.004 59.712C351.828 63.872 348.82 67.104 344.98 69.408C341.204 71.712 336.98 72.864 332.308 72.864C327.764 72.864 323.764 71.872 320.308 69.888C316.916 67.904 314.356 65.376 312.628 62.304V72H303.892V0.959999H312.628V29.184ZM348.34 45.504C348.34 41.536 347.54 38.08 345.94 35.136C344.34 32.192 342.164 29.952 339.412 28.416C336.724 26.88 333.748 26.112 330.484 26.112C327.284 26.112 324.308 26.912 321.556 28.512C318.868 30.048 316.692 32.32 315.028 35.328C313.428 38.272 312.628 41.696 312.628 45.6C312.628 49.568 313.428 53.056 315.028 56.064C316.692 59.008 318.868 61.28 321.556 62.88C324.308 64.416 327.284 65.184 330.484 65.184C333.748 65.184 336.724 64.416 339.412 62.88C342.164 61.28 344.34 59.008 345.94 56.064C347.54 53.056 348.34 49.536 348.34 45.504ZM415.423 19.392V72H406.687V64.224C405.023 66.912 402.687 69.024 399.679 70.56C396.735 72.032 393.471 72.768 389.887 72.768C385.791 72.768 382.111 71.936 378.847 70.272C375.583 68.544 372.991 65.984 371.071 62.592C369.215 59.2 368.287 55.072 368.287 50.208V19.392H376.927V49.056C376.927 54.24 378.239 58.24 380.863 61.056C383.487 63.808 387.071 65.184 391.615 65.184C396.287 65.184 399.967 63.744 402.655 60.864C405.343 57.984 406.687 53.792 406.687 48.288V19.392H415.423ZM438.909 27.936C440.445 24.928 442.621 22.592 445.437 20.928C448.317 19.264 451.805 18.432 455.901 18.432V27.456H453.597C443.805 27.456 438.909 32.768 438.909 43.392V72H430.173V19.392H438.909V27.936ZM495.362 72L474.722 48.768V72H465.986V0.959999H474.722V42.72L494.978 19.392H507.17L482.402 45.6L507.266 72H495.362ZM563.392 43.68C563.392 45.344 563.296 47.104 563.104 48.96H521.056C521.376 54.144 523.136 58.208 526.336 61.152C529.6 64.032 533.536 65.472 538.144 65.472C541.92 65.472 545.056 64.608 547.552 62.88C550.112 61.088 551.904 58.72 552.928 55.776H562.336C560.928 60.832 558.112 64.96 553.888 68.16C549.664 71.296 544.416 72.864 538.144 72.864C533.152 72.864 528.672 71.744 524.704 69.504C520.8 67.264 517.728 64.096 515.488 60C513.248 55.84 512.128 51.04 512.128 45.6C512.128 40.16 513.216 35.392 515.392 31.296C517.568 27.2 520.608 24.064 524.512 21.888C528.48 19.648 533.024 18.528 538.144 18.528C543.136 18.528 547.552 19.616 551.392 21.792C555.232 23.968 558.176 26.976 560.224 30.816C562.336 34.592 563.392 38.88 563.392 43.68ZM554.368 41.856C554.368 38.528 553.632 35.68 552.16 33.312C550.688 30.88 548.672 29.056 546.112 27.84C543.616 26.56 540.832 25.92 537.76 25.92C533.344 25.92 529.568 27.328 526.432 30.144C523.36 32.96 521.6 36.864 521.152 41.856H554.368Z" fill="white"/>
</svg>
